<svg width="341pt" height="553pt"
     viewBox="0.00 0.00 341.46 553.44" xmlns="http://www.w3.org/2000/svg">
    <g id="graph0" class="graph" transform="scale(1 1) rotate(0) translate(14.4 539.0368)">
        <title>%3</title>
        <polygon fill="#ffffff" stroke="transparent"
                 points="-14.4,14.4 -14.4,-539.0368 327.064,-539.0368 327.064,14.4 -14.4,14.4"/>
        <!-- InvoiceSent -->
        <g id="node1" class="node">
            <title>InvoiceSent</title>
            <path fill="#767676" stroke="#767676"
                  d="M145.4348,-138.9927C145.4348,-138.9927 11.065,-77.0309 11.065,-77.0309 5.6164,-74.5184 5.6164,-69.4934 11.065,-66.9809 11.065,-66.9809 145.4348,-5.0191 145.4348,-5.0191 150.8834,-2.5066 161.7806,-2.5066 167.2292,-5.0191 167.2292,-5.0191 301.599,-66.9809 301.599,-66.9809 307.0476,-69.4934 307.0476,-74.5184 301.599,-77.0309 301.599,-77.0309 167.2292,-138.9927 167.2292,-138.9927 161.7806,-141.5052 150.8834,-141.5052 145.4348,-138.9927"/>
            <text text-anchor="middle" x="156.332" y="-68.4088" font-family="ING Me" font-size="22.00" fill="#ffffff">
                InvoiceSent
            </text>
        </g>
        <!-- SendInvoice -->
        <g id="node2" class="node">
            <title>SendInvoice</title>
            <path fill="#525199" stroke="#525199" stroke-width="2"
                  d="M238.784,-280.0206C238.784,-280.0206 73.88,-280.0206 73.88,-280.0206 67.88,-280.0206 61.88,-274.0206 61.88,-268.0206 61.88,-268.0206 61.88,-192.0088 61.88,-192.0088 61.88,-186.0088 67.88,-180.0088 73.88,-180.0088 73.88,-180.0088 238.784,-180.0088 238.784,-180.0088 244.784,-180.0088 250.784,-186.0088 250.784,-192.0088 250.784,-192.0088 250.784,-268.0206 250.784,-268.0206 250.784,-274.0206 244.784,-280.0206 238.784,-280.0206"/>
            <text text-anchor="middle" x="156.332" y="-226.4177" font-family="ING Me" font-size="22.00" fill="#ffffff">
                SendInvoice
            </text>
        </g>
        <!-- SendInvoice&#45;&gt;InvoiceSent -->
        <g id="edge1" class="edge">
            <title>SendInvoice&#45;&gt;InvoiceSent</title>
            <path fill="none" stroke="#000000"
                  d="M156.332,-179.5853C156.332,-171.4709 156.332,-162.8917 156.332,-154.2606"/>
            <polygon fill="#000000" stroke="#000000"
                     points="159.8321,-154.1294 156.332,-144.1295 152.8321,-154.1295 159.8321,-154.1294"/>
        </g>
        <!-- customerInfo -->
        <g id="node3" class="node">
            <title>customerInfo</title>
            <ellipse fill="#ee0000" stroke="#ee0000" stroke-width="5" cx="156.332" cy="-420.3272" rx="104.1195"
                     ry="104.1195"/>
            <text text-anchor="middle" x="156.332" y="-416.7302" font-family="ING Me" font-size="22.00" fill="#ffffff">
                customerInfo
            </text>
        </g>
        <!-- customerInfo&#45;&gt;SendInvoice -->
        <g id="edge2" class="edge">
            <title>customerInfo&#45;&gt;SendInvoice</title>
            <path fill="none" stroke="#000000"
                  d="M156.332,-315.984C156.332,-307.2183 156.332,-298.5575 156.332,-290.3029"/>
            <polygon fill="#000000" stroke="#000000"
                     points="159.8321,-290.087 156.332,-280.0871 152.8321,-290.0871 159.8321,-290.087"/>
        </g>
    </g>
</svg>
