<svg width="405pt" height="553pt"
     viewBox="0.00 0.00 405.07 553.44" xmlns="http://www.w3.org/2000/svg">
    <g id="graph0" class="graph" transform="scale(1 1) rotate(0) translate(14.4 539.0368)">
        <title>%3</title>
        <polygon fill="#ffffff" stroke="transparent"
                 points="-14.4,14.4 -14.4,-539.0368 390.6736,-539.0368 390.6736,14.4 -14.4,14.4"/>
        <!-- ShipGoods -->
        <g id="node1" class="node">
            <title>ShipGoods</title>
            <path fill="#525199" stroke="#525199" stroke-width="2"
                  d="M259.49,-280.0206C259.49,-280.0206 108.438,-280.0206 108.438,-280.0206 102.438,-280.0206 96.438,-274.0206 96.438,-268.0206 96.438,-268.0206 96.438,-192.0088 96.438,-192.0088 96.438,-186.0088 102.438,-180.0088 108.438,-180.0088 108.438,-180.0088 259.49,-180.0088 259.49,-180.0088 265.49,-180.0088 271.49,-186.0088 271.49,-192.0088 271.49,-192.0088 271.49,-268.0206 271.49,-268.0206 271.49,-274.0206 265.49,-280.0206 259.49,-280.0206"/>
            <text text-anchor="middle" x="183.964" y="-226.4177" font-family="ING Me" font-size="22.00" fill="#ffffff">
                ShipGoods
            </text>
        </g>
        <!-- GoodsShipped -->
        <g id="node2" class="node">
            <title>GoodsShipped</title>
            <path fill="#767676" stroke="#767676"
                  d="M172.7899,-139.6428C172.7899,-139.6428 11.2101,-76.3808 11.2101,-76.3808 5.623,-74.1933 5.623,-69.8184 11.2101,-67.631 11.2101,-67.631 172.7899,-4.369 172.7899,-4.369 178.377,-2.1816 189.551,-2.1816 195.1381,-4.369 195.1381,-4.369 356.7179,-67.631 356.7179,-67.631 362.305,-69.8184 362.305,-74.1933 356.7179,-76.3808 356.7179,-76.3808 195.1381,-139.6428 195.1381,-139.6428 189.551,-141.8302 178.377,-141.8302 172.7899,-139.6428"/>
            <text text-anchor="middle" x="183.964" y="-68.4088" font-family="ING Me" font-size="22.00" fill="#ffffff">
                GoodsShipped
            </text>
        </g>
        <!-- ShipGoods&#45;&gt;GoodsShipped -->
        <g id="edge1" class="edge">
            <title>ShipGoods&#45;&gt;GoodsShipped</title>
            <path fill="none" stroke="#000000"
                  d="M183.964,-179.5853C183.964,-171.4709 183.964,-162.8917 183.964,-154.2606"/>
            <polygon fill="#000000" stroke="#000000"
                     points="187.4641,-154.1294 183.964,-144.1295 180.4641,-154.1295 187.4641,-154.1294"/>
        </g>
        <!-- goods -->
        <g id="node3" class="node">
            <title>goods</title>
            <ellipse fill="#ee0000" stroke="#ee0000" stroke-width="5" cx="95.964" cy="-420.3272" rx="53.8479"
                     ry="53.8479"/>
            <text text-anchor="middle" x="95.964" y="-416.7302" font-family="ING Me" font-size="22.00" fill="#ffffff">
                goods
            </text>
        </g>
        <!-- goods&#45;&gt;ShipGoods -->
        <g id="edge2" class="edge">
            <title>goods&#45;&gt;ShipGoods</title>
            <path fill="none" stroke="#000000"
                  d="M118.6262,-371.317C130.197,-346.2935 144.3654,-315.6524 156.5472,-289.3074"/>
            <polygon fill="#000000" stroke="#000000"
                     points="159.7455,-290.7299 160.7657,-280.1843 153.3918,-287.792 159.7455,-290.7299"/>
        </g>
        <!-- customerInfo -->
        <g id="node4" class="node">
            <title>customerInfo</title>
            <ellipse fill="#ee0000" stroke="#ee0000" stroke-width="5" cx="271.964" cy="-420.3272" rx="104.1195"
                     ry="104.1195"/>
            <text text-anchor="middle" x="271.964" y="-416.7302" font-family="ING Me" font-size="22.00" fill="#ffffff">
                customerInfo
            </text>
        </g>
        <!-- customerInfo&#45;&gt;ShipGoods -->
        <g id="edge3" class="edge">
            <title>customerInfo&#45;&gt;ShipGoods</title>
            <path fill="none" stroke="#000000"
                  d="M228.0929,-325.4498C222.4423,-313.2294 216.7888,-301.003 211.5053,-289.5766"/>
            <polygon fill="#000000" stroke="#000000"
                     points="214.5362,-287.792 207.1623,-280.1843 208.1825,-290.7299 214.5362,-287.792"/>
        </g>
    </g>
</svg>
